<?xml version="1.0" encoding="UTF-8"?>
<svg id="Livello_1" xmlns="http://www.w3.org/2000/svg" xmlns:xlink="http://www.w3.org/1999/xlink" version="1.1" viewBox="0 0 64.3 43">
  <!-- Generator: Adobe Illustrator 30.2.0, SVG Export Plug-In . SVG Version: 2.1.1 Build 105)  -->
  <defs>
    <style>
      .st0 {
        fill: none;
      }

      .st1 {
        clip-path: url(#clippath);
      }
    </style>
    <clipPath id="clippath">
      <rect class="st0" width="64.3" height="43"/>
    </clipPath>
  </defs>
  <g class="st1">
    <path d="M64.3,28.1v2.6c-.9,5.9-5.3,11.8-11.8,11.8l-38.3.2C6,41.6,0,34.7.2,26.5s6.2-14.7,14.3-15.6C17.7,4.9,23.5,1,30.2.2h4.7c8.5,1.4,15.2,7.6,16.9,16,6.7.5,11.4,5.5,12.5,11.8ZM37.6,34.8v-10.6s7.9-.1,7.9-.1l-13.2-13.3-13.3,13.3h7.9c0,0,0,10.7,0,10.7h10.7Z"/>
  </g>
</svg>