<?xml version="1.0" encoding="UTF-8"?>
<svg id="Livello_1" xmlns="http://www.w3.org/2000/svg" version="1.1" viewBox="0 0 63.4 43.1">
  <!-- Generator: Adobe Illustrator 30.2.0, SVG Export Plug-In . SVG Version: 2.1.1 Build 105)  -->
  <path d="M63.4,21.2v.6c-5.3,12-16.2,20.4-29.5,21.2-.7,0-3.7,0-4.6,0-13.1-.9-24.4-9.2-29.3-21.5C4.6,9.9,15.3,1.5,27.9.1c2.6-.3,5,0,7.5,0,12.8,1.5,22.9,9.6,27.9,21.1ZM29.1,7.4c-8,1.5-13,9.1-11.5,16.8,1.5,7.8,9,12.9,16.8,11.5s12.9-8.9,11.5-16.6c-1.4-7.8-8.8-13.2-16.8-11.7Z"/>
  <path d="M29.8,13.1c4.9-1.1,9.4,2,10.4,6.6s-1.9,9.1-6.5,10.2c-4.6,1.1-9.3-1.8-10.3-6.5s1.6-9.3,6.5-10.4Z"/>
</svg>
